<svg width="42" height="44" viewBox="0 0 42 44" fill="none" xmlns="http://www.w3.org/2000/svg">
<path d="M2.99888 12.3212C1.49904 6.03615 6.26424 0 12.7258 0H23.1642C27.7929 0 31.8166 3.17654 32.891 7.67881L38.6183 31.6788C40.1181 37.9638 35.353 44 28.8914 44H18.453C13.8243 44 9.80056 40.8235 8.72615 36.3212L2.99888 12.3212Z" fill="#FF7D56"/>
<path d="M12.056 30.656L13.976 26.272C14.36 26.4853 14.84 26.6987 15.416 26.912C16.0133 27.1253 16.632 27.3067 17.272 27.456C17.9333 27.584 18.52 27.648 19.032 27.648C19.6507 27.648 20.1627 27.5627 20.568 27.392C20.9947 27.2213 21.3147 27.008 21.528 26.752C21.7413 26.4747 21.848 26.208 21.848 25.952C21.848 25.696 21.6773 25.44 21.336 25.184C21.016 24.9067 20.6 24.6293 20.088 24.352C19.576 24.0533 19.0427 23.744 18.488 23.424C17.784 22.9973 17.048 22.5493 16.28 22.08C15.5333 21.6107 14.8293 21.088 14.168 20.512C13.5067 19.936 12.9733 19.2853 12.568 18.56C12.1627 17.8133 11.96 16.9813 11.96 16.064C11.9813 14.8693 12.312 13.8027 12.952 12.864C13.6133 11.9253 14.552 11.1893 15.768 10.656C16.984 10.1013 18.4133 9.824 20.056 9.824C21.144 9.824 22.264 9.984 23.416 10.304C24.5893 10.6027 25.6027 11.04 26.456 11.616L24.728 15.552C23.96 15.2747 23.32 15.072 22.808 14.944C22.3173 14.816 21.8693 14.7307 21.464 14.688C21.0587 14.624 20.6107 14.592 20.12 14.592C19.4587 14.592 18.936 14.752 18.552 15.072C18.168 15.3707 17.976 15.7227 17.976 16.128C17.976 16.4267 18.1253 16.704 18.424 16.96C18.744 17.216 19.1493 17.472 19.64 17.728C20.152 17.9627 20.696 18.2507 21.272 18.592C22.04 19.04 22.808 19.5093 23.576 20C24.3653 20.4907 25.08 21.0347 25.72 21.632C26.36 22.2293 26.872 22.8907 27.256 23.616C27.6613 24.32 27.864 25.12 27.864 26.016C27.864 27.232 27.512 28.3307 26.808 29.312C26.1253 30.272 25.1333 31.0293 23.832 31.584C22.5307 32.1387 20.984 32.416 19.192 32.416C18.6373 32.416 18.0293 32.3733 17.368 32.288C16.728 32.2027 16.0773 32.0853 15.416 31.936C14.776 31.7653 14.1573 31.5733 13.56 31.36C12.984 31.1467 12.4827 30.912 12.056 30.656Z" fill="white"/>
</svg>
